<svg width="28" height="28" viewBox="0 0 28 28" fill="none" xmlns="http://www.w3.org/2000/svg">
<path fill-rule="evenodd" clip-rule="evenodd" d="M18.9641 3.49494C22.8061 7.33692 23.093 13.4034 19.8537 17.6719L28.2012 26.0195L26.2226 27.998L17.8961 19.6715C13.6193 23.0643 7.43002 22.8264 3.53134 18.9277C-0.669426 14.727 -0.620073 7.86683 3.64158 3.60518C7.90322 -0.656471 14.7634 -0.705824 18.9641 3.49494ZM18.1727 4.28637C21.9426 8.05629 21.8983 14.2128 18.0738 18.0374C14.2492 21.8619 8.09269 21.9062 4.32277 18.1363C0.552847 14.3664 0.597138 8.20985 4.42169 4.3853C8.24625 0.560741 14.4028 0.516449 18.1727 4.28637Z" fill="#2B4074"/>
</svg>
